<!-- icon666.com - MILLIONS vector ICONS FREE --><svg viewBox="0 0 64 64" xmlns="http://www.w3.org/2000/svg"><g id="Fill_1" data-name="Fill 1"><path d="m47.7568 61.0005a4.5846 4.5846 0 0 1 -2.7011-.8941l-13.0557-9.4858-13.0557 9.4858a4.5953 4.5953 0 0 1 -7.0713-5.1376l4.997-15.377-12.1161-9.5679a4.5951 4.5951 0 0 1 2.8477-8.2007h15.0384l4.9879-15.6432a4.5953 4.5953 0 0 1 8.7421-.0052l.002.0054 4.988 15.643h15.038a4.5951 4.5951 0 0 1 2.8477 8.2007l-12.1157 9.5679 4.9971 15.377a4.5262 4.5262 0 0 1 -1.669 5.1372 4.5869 4.5869 0 0 1 -2.7013.8945z" fill="#ffe145"></path></g><g id="Effect_Line" data-name="Effect Line"><circle cx="28" cy="16" fill="#fcf4bb" r="1"></circle><path d="m24.832 25.8232h-5.832a1 1 0 0 1 0-2h5.1016l1.3154-4.1269a1 1 0 0 1 1.9062.6074l-1.538 4.8233a1.0011 1.0011 0 0 1 -.9532.6962z" fill="#fcf4bb"></path><g fill="#bfa934"><path d="m49 56.0552a1.0014 1.0014 0 0 1 -.9512-.6914l-3.2675-10.0547a1 1 0 0 1 1.9023-.6182l3.2676 10.0547a1.0015 1.0015 0 0 1 -.9512 1.3096z"></path><path d="m21.001 55.9043a1 1 0 0 1 -.5889-1.8091l9.5029-6.9043a1 1 0 0 1 1.1758 1.6182l-9.5029 6.9043a.9953.9953 0 0 1 -.5869.1909z"></path></g></g></svg>